<svg width="24" height="24" viewBox="0 0 24 24" fill="none" xmlns="http://www.w3.org/2000/svg">
<g clip-path="url(#clip0_1054_5175)">
<path d="M23.1172 9.87871L18.1672 4.92871L16.0462 7.04971L19.5002 10.4997H6.61719V13.4997H19.5002L16.0502 16.9497L18.1712 19.0707L23.1212 14.1207C23.6831 13.5576 23.9983 12.7944 23.9975 11.9989C23.9968 11.2034 23.6801 10.4408 23.1172 9.87871V9.87871Z" fill="white"/>
<path d="M9.99386 20.4993C9.99386 20.6319 9.94118 20.7591 9.84741 20.8528C9.75364 20.9466 9.62647 20.9993 9.49386 20.9993H3.50586C3.37325 20.9993 3.24607 20.9466 3.15231 20.8528C3.05854 20.7591 3.00586 20.6319 3.00586 20.4993V3.53027C3.00586 3.39767 3.05854 3.27049 3.15231 3.17672C3.24607 3.08295 3.37325 3.03027 3.50586 3.03027H9.49386C9.62647 3.03027 9.75364 3.08295 9.84741 3.17672C9.94118 3.27049 9.99386 3.39767 9.99386 3.53027V8.34427H12.9939V3.53027C12.9925 2.60242 12.6234 1.71295 11.9673 1.05686C11.3112 0.40077 10.4217 0.0315961 9.49386 0.0302734H3.50586C2.57801 0.0315961 1.68854 0.40077 1.03245 1.05686C0.376356 1.71295 0.00718205 2.60242 0.00585938 3.53027V20.4993C0.00585938 21.4275 0.374608 22.3178 1.03099 22.9742C1.68736 23.6305 2.5776 23.9993 3.50586 23.9993H9.49386C10.4221 23.9993 11.3124 23.6305 11.9687 22.9742C12.6251 22.3178 12.9939 21.4275 12.9939 20.4993V15.6823H9.99386V20.4993Z" fill="white"/>
</g>
<defs>
<clipPath id="clip0_1054_5175">
<rect width="24" height="24" fill="white"/>
</clipPath>
</defs>
</svg>
