<svg width="57" height="56" viewBox="0 0 57 56" fill="none" xmlns="http://www.w3.org/2000/svg">
<path d="M35.3556 32.3313C34.6373 32.3313 34.053 31.7498 34.053 31.0355C34.053 30.3212 34.6373 29.7401 35.3556 29.7401C36.0741 29.7401 36.6584 30.321 36.6584 31.0355C36.6584 31.7499 36.0741 32.3313 35.3556 32.3313ZM20.9566 32.3313C20.2383 32.3313 19.654 31.7498 19.654 31.0355C19.654 30.3212 20.2382 29.7401 20.9566 29.7401C21.675 29.7401 22.2593 30.321 22.2593 31.0355C22.2593 31.7499 21.6751 32.3313 20.9566 32.3313ZM35.8228 24.5277L38.4264 20.0435C38.4981 19.9198 38.5175 19.7728 38.4803 19.6349C38.4431 19.4969 38.3525 19.3793 38.2282 19.3077C38.1037 19.2365 37.9559 19.2173 37.8172 19.2542C37.6785 19.2912 37.5602 19.3813 37.4883 19.5049L34.8521 24.0458C32.8361 23.131 30.5721 22.6213 28.1561 22.6213C25.7402 22.6213 23.4762 23.131 21.4602 24.0458L18.824 19.5049C18.752 19.3813 18.6337 19.2912 18.495 19.2542C18.3563 19.2173 18.2086 19.2365 18.0841 19.3077C17.9597 19.3792 17.869 19.4969 17.8318 19.6348C17.7946 19.7728 17.8141 19.9198 17.8858 20.0435L20.4894 24.5277C16.0187 26.9457 12.961 31.4466 12.5137 36.7642H43.7986C43.3509 31.4468 40.2932 26.9457 35.8228 24.5276" fill="#3DDB85"/>
</svg>
