<svg width="57" height="56" viewBox="0 0 57 56" fill="none" xmlns="http://www.w3.org/2000/svg">
<path d="M12.5142 39.5439C12.5142 41.7596 14.3203 43.5554 16.5481 43.5554H39.765C41.9932 43.5554 43.7991 41.7594 43.7991 39.5439V16.456C43.7991 14.2402 41.993 12.4443 39.7652 12.4443H16.5482C14.32 12.4443 12.5142 14.2404 12.5142 16.4558V39.5438V39.5439Z" fill="#563D7C"/>
<path d="M25.4874 26.206V21.8002H29.3872C29.7587 21.8002 30.1168 21.831 30.4616 21.8926C30.8065 21.9541 31.1117 22.0639 31.377 22.2223C31.6422 22.3806 31.8544 22.6005 32.0137 22.8818C32.1728 23.1633 32.2525 23.5238 32.2525 23.9634C32.2525 24.7549 32.0137 25.3266 31.5361 25.6783C31.0586 26.0301 30.4484 26.206 29.7055 26.206H25.4874V26.206ZM21.3223 18.5815V37.4183H30.5015C31.3504 37.4183 32.1773 37.3129 32.982 37.1018C33.7868 36.8907 34.503 36.5653 35.1309 36.1257C35.7587 35.686 36.2584 35.1187 36.6298 34.424C37.0013 33.7293 37.1869 32.907 37.1869 31.9573C37.1869 30.7788 36.8995 29.7719 36.3248 28.9366C35.7499 28.1011 34.8788 27.5163 33.7115 27.1821C34.5605 26.7776 35.2017 26.2587 35.635 25.6255C36.0683 24.9924 36.2849 24.201 36.2849 23.2511C36.2849 22.3718 36.139 21.6331 35.8472 21.0351C35.5553 20.4372 35.1441 19.9578 34.6135 19.5973C34.083 19.2367 33.4463 18.9772 32.7034 18.819C31.9606 18.6607 31.1382 18.5815 30.2362 18.5815H21.3223V18.5815ZM25.4874 34.1997V29.0288H30.0239C30.9259 29.0288 31.6511 29.2354 32.1994 29.6488C32.7476 30.0621 33.0219 30.7524 33.0219 31.7198C33.0219 32.2123 32.9378 32.6168 32.7698 32.9334C32.6017 33.2499 32.3763 33.5007 32.0932 33.6853C31.8103 33.87 31.483 34.0018 31.1117 34.0811C30.7401 34.1601 30.3512 34.1997 29.9443 34.1997H25.4874V34.1997Z" fill="white"/>
</svg>
