<svg width="56" height="56" viewBox="0 0 56 56" fill="none" xmlns="http://www.w3.org/2000/svg">
<path d="M41.7159 12.4445L39.2167 40.4412L27.983 43.5556L16.7802 40.4456L14.2837 12.4445H41.7159Z" fill="#264DE4"/>
<path d="M37.0774 38.6585L39.2131 14.734H28V41.1751L37.0774 38.6585Z" fill="#2965F1"/>
<path d="M20.0068 25.1191L20.3146 28.5533H27.9998V25.1191H20.0068Z" fill="#EBEBEB"/>
<path d="M27.9996 18.1682H27.9877H19.3882L19.7004 21.6025H27.9996V18.1682Z" fill="#EBEBEB"/>
<path d="M28 37.6112V34.0382L27.9849 34.0422L24.1602 33.0095L23.9157 30.2705H22.0572H20.4683L20.9494 35.6627L27.9841 37.6156L28 37.6112Z" fill="#EBEBEB"/>
<path d="M32.2167 28.5534L31.818 33.0073L27.9878 34.0411V37.614L35.0281 35.6627L35.0798 35.0825L35.8868 26.0414L35.9706 25.1192L36.5906 18.1682H27.9878V21.6025H32.827L32.5145 25.1192H27.9878V28.5534H32.2167Z" fill="white"/>
</svg>
