<svg width="57" height="56" viewBox="0 0 57 56" fill="none" xmlns="http://www.w3.org/2000/svg">
<path d="M43.7991 12.4445H12.5142V43.5556H43.7991V12.4445Z" fill="#F7DF1E"/>
<path d="M33.5296 36.7502C34.1598 37.7734 34.9796 38.5255 36.4297 38.5255C37.6478 38.5255 38.426 37.92 38.426 37.0835C38.426 36.081 37.6265 35.726 36.2857 35.1427L35.5507 34.8292C33.4293 33.9304 32.02 32.8045 32.02 30.4242C32.02 28.2316 33.6999 26.5625 36.3254 26.5625C38.1945 26.5625 39.5383 27.2094 40.5066 28.9032L38.2174 30.365C37.7134 29.4662 37.1696 29.1121 36.3254 29.1121C35.4643 29.1121 34.9186 29.6553 34.9186 30.365C34.9186 31.242 35.4648 31.5971 36.7261 32.1403L37.4611 32.4534C39.9589 33.5185 41.3692 34.6045 41.3692 37.046C41.3692 39.6781 39.29 41.12 36.4977 41.12C33.7675 41.12 32.0036 39.8262 31.1405 38.1304L33.5296 36.7502ZM23.1445 37.0035C23.6063 37.8183 24.0264 38.5072 25.0365 38.5072C26.0024 38.5072 26.6117 38.1314 26.6117 36.6702V26.7294H29.5515V36.7097C29.5515 39.7368 27.7667 41.1146 25.1616 41.1146C22.8078 41.1146 21.4447 39.9032 20.7515 38.4442L23.1445 37.0035Z" fill="black"/>
</svg>
