<svg width="56" height="56" viewBox="0 0 56 56" fill="none" xmlns="http://www.w3.org/2000/svg">
<path d="M28.0001 42.3295L33.7285 24.6992H22.2715L27.9999 42.3295H28.0001Z" fill="#E24329"/>
<path d="M27.9999 42.3293L22.2713 24.699H14.2432L27.9999 42.3293Z" fill="#FC6D26"/>
<path d="M14.2432 24.699L12.5024 30.0568C12.425 30.295 12.425 30.5515 12.5024 30.7897C12.5797 31.0279 12.7305 31.2355 12.9331 31.3827L27.9999 42.3294L14.243 24.6991L14.2432 24.699Z" fill="#FCA326"/>
<path d="M14.2432 24.6991H22.2713L18.8213 14.0804C18.6437 13.534 17.8708 13.5341 17.6933 14.0804L14.2432 24.6991Z" fill="#E24329"/>
<path d="M28.0001 42.3293L33.7286 24.699H41.7569L28 42.3293H28.0001Z" fill="#FC6D26"/>
<path d="M41.7567 24.699L43.4975 30.0568C43.5749 30.295 43.5749 30.5516 43.4975 30.7897C43.4201 31.0279 43.2692 31.2355 43.0666 31.3827L28 42.3294L41.7567 24.6991V24.699Z" fill="#FCA326"/>
<path d="M41.7568 24.6991H33.7285L37.1787 14.0804C37.3562 13.534 38.1292 13.5341 38.3066 14.0804L41.7568 24.6991Z" fill="#E24329"/>
</svg>
