<svg width="57" height="56" viewBox="0 0 57 56" fill="none" xmlns="http://www.w3.org/2000/svg">
<path d="M28.058 12.5293L28.8929 14.0886C29.0806 14.3764 29.2839 14.6311 29.5234 14.8683C30.2256 15.5579 30.8801 16.2938 31.4825 17.0712C32.897 18.9183 33.8512 20.9695 34.5325 23.1879C34.9412 24.5431 35.1631 25.9333 35.1797 27.339C35.2481 31.5416 33.7994 35.1502 30.8783 38.1493C30.4032 38.6249 29.8899 39.0612 29.3435 39.454C29.0542 39.454 28.9173 39.2333 28.798 39.0301C28.5808 38.6533 28.4363 38.2396 28.3718 37.81C28.2692 37.3016 28.2017 36.7932 28.2349 36.2682V36.031C28.2115 35.9805 27.9563 12.6489 28.058 12.5293V12.5293Z" fill="#599636"/>
<path d="M28.0581 12.4778C28.0239 12.4097 27.9897 12.4613 27.9554 12.4943C27.9721 12.8346 27.8528 13.1379 27.6661 13.4276C27.4608 13.7153 27.189 13.936 26.9163 14.1732C25.401 15.4778 24.2084 17.0537 23.2533 18.8162C21.9824 21.1882 21.3274 23.7304 21.1417 26.4068C21.0566 27.3721 21.4486 30.7785 21.7546 31.7614C22.5895 34.3706 24.0891 36.557 26.0316 38.4546C26.5086 38.9115 27.0189 39.3354 27.5468 39.7427C27.7003 39.7427 27.7169 39.6066 27.7521 39.5055C27.8194 39.2892 27.8707 39.0682 27.9056 38.8444L28.2477 36.3032L28.0581 12.4778Z" fill="#6CAC48"/>
<path d="M28.893 40.4864C28.9272 40.0975 29.1149 39.7748 29.3192 39.453C29.1139 39.3684 28.9614 39.2003 28.8422 39.0126C28.7393 38.835 28.6542 38.6478 28.588 38.4536C28.3495 37.742 28.2986 36.9954 28.2302 36.2683V35.8279C28.1452 35.8959 28.1276 36.4714 28.1276 36.557C28.0778 37.3255 27.9753 38.0898 27.8206 38.8444C27.7698 39.1497 27.7355 39.454 27.5469 39.7252C27.5469 39.7592 27.5469 39.7933 27.5635 39.8438C27.8705 40.7421 27.9545 41.6569 28.0063 42.5892V42.9294C28.0063 43.3358 27.9897 43.2502 28.3289 43.3863C28.4658 43.4369 28.6183 43.4544 28.7552 43.5555C28.8578 43.5555 28.8744 43.4709 28.8744 43.4028L28.8236 42.8439V41.2845C28.807 41.0123 28.8578 40.7421 28.892 40.4874L28.893 40.4864Z" fill="#C2BFBF"/>
</svg>
