<svg width="56" height="56" viewBox="0 0 56 56" fill="none" xmlns="http://www.w3.org/2000/svg">
<path d="M19.7852 23.5323H25.653V23.9965H20.323V27.4898H25.3352V27.9539H20.323V31.7892H25.7141V32.2534H19.7852V23.5323ZM26.1787 23.5323H26.8021L29.5649 27.3676L32.3888 23.5323L36.2297 18.6606L29.9194 27.7707L33.1712 32.2534H32.5233L29.5649 28.1738L26.5943 32.2534H25.9586L29.2348 27.7707L26.1787 23.5323ZM33.4034 23.9965V23.5323H40.0903V23.9965H37.0097V32.2534H36.4718V23.9965H33.4034Z" fill="black"/>
<path d="M12.4443 23.5323H13.1167L22.3881 37.3395L18.5567 32.2534L13.0067 24.1919L12.9822 32.2534H12.4443V23.5323Z" fill="black"/>
<path d="M40.0361 31.6492C40.1473 31.6492 40.2284 31.5644 40.2284 31.4549C40.2284 31.3454 40.1473 31.2607 40.0361 31.2607C39.9262 31.2607 39.8438 31.3454 39.8438 31.4549C39.8438 31.5644 39.9262 31.6492 40.0361 31.6492ZM40.5646 31.1381C40.5646 31.4615 40.7988 31.6727 41.1402 31.6727C41.5039 31.6727 41.7237 31.4549 41.7237 31.0769V29.7458H41.4307V31.0756C41.4307 31.2855 41.3247 31.3976 41.1376 31.3976C40.9702 31.3976 40.8563 31.2933 40.8524 31.1381H40.5646ZM42.107 31.1212C42.128 31.4575 42.4092 31.6727 42.8279 31.6727C43.2753 31.6727 43.5553 31.4471 43.5553 31.0873C43.5553 30.8044 43.3957 30.648 43.0084 30.558L42.8004 30.5072C42.5545 30.4498 42.455 30.3729 42.455 30.2386C42.455 30.0691 42.6094 29.9583 42.841 29.9583C43.0608 29.9583 43.2125 30.0665 43.24 30.2399H43.5252C43.5082 29.9231 43.2282 29.7002 42.8449 29.7002C42.4328 29.7002 42.1581 29.9231 42.1581 30.2582C42.1581 30.5345 42.3137 30.6988 42.6552 30.7783L42.8985 30.837C43.1484 30.8957 43.2583 30.9817 43.2583 31.1251C43.2583 31.292 43.0856 31.4132 42.8501 31.4132C42.5976 31.4132 42.4223 31.2998 42.3975 31.1212H42.107Z" fill="black"/>
</svg>
