<svg width="40" height="40" viewBox="0 0 40 40" fill="none" xmlns="http://www.w3.org/2000/svg">
<path d="M13.5631 31.5919H27.039C30.0612 31.5135 32.9333 30.2579 35.0432 28.0925C37.153 25.9272 38.3337 23.0235 38.3337 20.0004C38.3337 16.9772 37.153 14.0735 35.0432 11.9083C32.9333 9.743 30.0612 8.48735 27.039 8.40893H13.5631C12.0156 8.36878 10.4757 8.6389 9.03428 9.20338C7.59281 9.76785 6.27898 10.6152 5.17024 11.6956C4.06151 12.7759 3.18031 14.0673 2.57864 15.4937C1.97698 16.92 1.66699 18.4524 1.66699 20.0004C1.66699 21.5484 1.97698 23.0809 2.57864 24.5072C3.18031 25.9335 4.06151 27.2249 5.17024 28.3052C6.27898 29.3855 7.59281 30.233 9.03428 30.7974C10.4757 31.3619 12.0156 31.632 13.5631 31.5919ZM26.7347 27.5109H13.8597C11.9117 27.448 10.0646 26.63 8.70883 25.2299C7.35309 23.8297 6.59509 21.9572 6.59509 20.0082C6.59509 18.0592 7.35309 16.1867 8.70883 14.7865C10.0646 13.3864 11.9117 12.5684 13.8597 12.5055H26.7347C27.7403 12.4731 28.7422 12.6432 29.6808 13.0056C30.6195 13.3681 31.4757 13.9155 32.1985 14.6154C32.9212 15.3153 33.496 16.1533 33.8885 17.0797C34.281 18.0062 34.4833 19.002 34.4833 20.0082C34.4833 21.0144 34.281 22.0102 33.8885 22.9367C33.496 23.863 32.9212 24.7012 32.1985 25.401C31.4757 26.1009 30.6195 26.6484 29.6808 27.0109C28.7422 27.3732 27.7403 27.5434 26.7347 27.5109Z" fill="#C74634"/>
</svg>
