<svg width="57" height="56" viewBox="0 0 57 56" fill="none" xmlns="http://www.w3.org/2000/svg">
<path d="M28.1561 30.7429C29.6794 30.7429 30.9143 29.5149 30.9143 28C30.9143 26.4852 29.6794 25.2572 28.1561 25.2572C26.6328 25.2572 25.3979 26.4852 25.3979 28C25.3979 29.5149 26.6328 30.7429 28.1561 30.7429Z" fill="#61DAFB"/>
<path fill-rule="evenodd" clip-rule="evenodd" d="M15.1875 26.5567C14.562 27.1182 14.3564 27.6078 14.3564 27.9999C14.3564 28.3921 14.562 28.8817 15.1875 29.4431C15.8126 30.0043 16.7735 30.5554 18.0462 31.0386C20.5846 32.0024 24.1588 32.6194 28.1563 32.6194C32.1538 32.6194 35.728 32.0024 38.2664 31.0386C39.5391 30.5554 40.5 30.0043 41.1251 29.4431C41.7505 28.8817 41.9561 28.3921 41.9561 27.9999C41.9561 27.6078 41.7505 27.1182 41.1251 26.5567C40.5 25.9956 39.5391 25.4445 38.2664 24.9613C35.728 23.9974 32.1538 23.3805 28.1563 23.3805C24.1588 23.3805 20.5846 23.9974 18.0462 24.9613C16.7735 25.4445 15.8126 25.9956 15.1875 26.5567ZM17.3362 23.0915C20.1543 22.0215 23.98 21.3805 28.1563 21.3805C32.3325 21.3805 36.1582 22.0215 38.9763 23.0915C40.3818 23.6252 41.5883 24.285 42.4611 25.0685C43.3334 25.8516 43.9561 26.8403 43.9561 27.9999C43.9561 29.1596 43.3334 30.1483 42.4611 30.9314C41.5883 31.7149 40.3818 32.3747 38.9763 32.9084C36.1582 33.9784 32.3325 34.6194 28.1563 34.6194C23.98 34.6194 20.1543 33.9784 17.3362 32.9084C15.9307 32.3747 14.7242 31.7149 13.8515 30.9314C12.9791 30.1483 12.3564 29.1596 12.3564 27.9999C12.3564 26.8403 12.9791 25.8516 13.8515 25.0685C14.7242 24.285 15.9307 23.6252 17.3362 23.0915Z" fill="#61DAFB"/>
<path fill-rule="evenodd" clip-rule="evenodd" d="M22.9367 16.1116C22.1359 15.854 21.6041 15.9204 21.2583 16.1189C20.9126 16.3174 20.5888 16.7423 20.4128 17.5607C20.2367 18.3791 20.2372 19.4814 20.4526 20.8183C20.8822 23.4848 22.1315 26.8701 24.1296 30.3118C26.1277 33.7534 28.4512 36.5219 30.5586 38.2252C31.6151 39.0791 32.5749 39.6307 33.3756 39.8883C34.1763 40.1459 34.7082 40.0795 35.054 39.881C35.3997 39.6824 35.7235 39.2576 35.8995 38.4392C36.0756 37.6208 36.0751 36.5185 35.8597 35.1816C35.4301 32.515 34.1808 29.1298 32.1827 25.6881C30.1845 22.2465 27.8611 19.478 25.7537 17.7747C24.6971 16.9208 23.7374 16.3692 22.9367 16.1116ZM27.0144 16.2263C29.3564 18.1192 31.8284 21.0946 33.9171 24.6923C36.0059 28.29 37.3611 31.9066 37.8385 34.8701C38.0767 36.3482 38.1053 37.7179 37.8593 38.8617C37.6133 40.0056 37.0638 41.0332 36.0581 41.6106C35.0525 42.188 33.8829 42.1474 32.7637 41.7873C31.6446 41.4273 30.4661 40.7178 29.2979 39.7736C26.9558 37.8807 24.4839 34.9053 22.3951 31.3076C20.3064 27.7099 18.9512 24.0933 18.4738 21.1298C18.2356 19.6517 18.207 18.282 18.453 17.1382C18.699 15.9943 19.2485 14.9667 20.2541 14.3893C21.2598 13.8119 22.4294 13.8525 23.5486 14.2126C24.6677 14.5726 25.8462 15.2821 27.0144 16.2263Z" fill="#61DAFB"/>
<path fill-rule="evenodd" clip-rule="evenodd" d="M35.8997 17.5606C35.7237 16.7423 35.3999 16.3174 35.0542 16.1189C34.7084 15.9204 34.1765 15.854 33.3758 16.1115C32.5751 16.3692 31.6153 16.9208 30.5588 17.7747C28.4514 19.4779 26.1279 22.2464 24.1298 25.6881C22.1316 29.1297 20.8824 32.515 20.4528 35.1815C20.2374 36.5184 20.2369 37.6207 20.4129 38.4392C20.589 39.2576 20.9127 39.6824 21.2585 39.8809C21.6043 40.0794 22.1361 40.1459 22.9368 39.8883C23.7376 39.6306 24.6973 39.079 25.7539 38.2251C27.8612 36.5219 30.1847 33.7534 32.1829 30.3117C34.181 26.8701 35.4302 23.4848 35.8599 20.8183C36.0752 19.4814 36.0757 18.3791 35.8997 17.5606ZM37.8387 21.1298C37.3613 24.0932 36.006 27.7099 33.9173 31.3075C31.8286 34.9052 29.3566 37.8807 27.0146 39.7736C25.8464 40.7177 24.6679 41.4273 23.5488 41.7873C22.4296 42.1473 21.2599 42.1879 20.2543 41.6105C19.2487 41.0332 18.6992 40.0056 18.4532 38.8617C18.2071 37.7179 18.2358 36.3482 18.4739 34.87C18.9514 31.9066 20.3066 28.2899 22.3953 24.6923C24.484 21.0946 26.956 18.1191 29.2981 16.2262C30.4663 15.2821 31.6448 14.5725 32.7639 14.2125C33.883 13.8525 35.0527 13.8119 36.0583 14.3893C37.064 14.9666 37.6135 15.9943 37.8595 17.1381C38.1055 18.2819 38.0768 19.6516 37.8387 21.1298Z" fill="#61DAFB"/>
</svg>
