<svg width="58" height="58" viewBox="0 0 58 58" fill="none" xmlns="http://www.w3.org/2000/svg">
<path d="M48.107 39.0286C42.2284 46.8595 29.676 44.2167 21.626 44.5953C21.626 44.5953 20.1998 44.6762 18.7665 44.9119C18.7665 44.9119 19.3093 44.681 20.0022 44.4405C25.6546 42.4857 28.326 42.0929 31.7617 40.3286C38.2141 37.0238 44.6379 29.8214 45.9451 22.3405C43.4879 29.5357 36.0165 35.7286 29.2141 38.2429C24.5593 39.9619 16.1379 41.6333 16.1355 41.6333C16.0211 41.5748 15.9076 41.5144 15.7951 41.4524C10.0689 38.6667 9.9022 26.2619 20.3046 22.2643C24.8665 20.5119 29.226 21.4738 34.157 20.3C39.4141 19.05 45.5046 15.1095 47.9784 9.95716C50.7522 18.1905 54.0855 31.0667 48.107 39.0286ZM48.207 7.40954C47.5419 9.00418 46.6908 10.5146 45.6712 11.9095C43.455 9.62536 40.8026 7.80958 37.8713 6.56991C34.94 5.33024 31.7896 4.69194 28.607 4.69287C15.457 4.69287 4.76172 15.3881 4.76172 28.5357C4.76019 31.8153 5.43735 35.0597 6.75063 38.0649C8.0639 41.0701 9.98486 43.7709 12.3927 45.9976L12.9165 46.4595C12.5347 46.0771 12.3204 45.5587 12.3207 45.0183C12.3211 44.4779 12.536 43.9598 12.9183 43.5778C13.3005 43.1959 13.8189 42.9814 14.3592 42.9815C14.8996 42.9816 15.4179 43.1963 15.8 43.5784C16.1821 43.9605 16.3968 44.4788 16.3969 45.0192C16.397 45.5595 16.1825 46.0779 15.8006 46.4601C15.4186 46.8424 14.9005 47.0573 14.3601 47.0577C13.8197 47.058 13.3013 46.8437 12.9189 46.4619L13.2736 46.7762C17.5603 50.4003 22.9936 52.3864 28.607 52.381C41.1736 52.381 51.4951 42.6 52.3784 30.2572C53.0308 24.2119 51.2451 16.5357 48.207 7.40954Z" fill="black"/>
</svg>
